M48
METRIC,LZ,000.000
;FILE_FORMAT=3:3
;TYPE=PLATED
;Layer: PTH_Through
;EasyEDA v6.5.51, 2025-12-29 20:22:51
;8c801f094042406f8d7acb605edc259c,d5e4be961509469492984ab41ac85589,10
;Gerber Generator version 0.2
;Holesize 1 = 0.305 mm
T01C0.305
;Holesize 2 = 0.800 mm
T02C0.800
;Holesize 3 = 0.849 mm
T03C0.849
;Holesize 4 = 0.915 mm
T04C0.915
;Holesize 5 = 1.001 mm
T05C1.001
;Holesize 6 = 1.101 mm
T06C1.101
;Holesize 7 = 1.301 mm
T07C1.301
%
G05
G90
T01
X091095Y074185
X114088Y031484
T02
X164326Y048006
X162826Y048006
X087991Y-017526
X098191Y-017526
X147241Y046766G85X147241Y048966
X153241Y046516G85X153241Y049216
X149641Y043066G85X151841Y043066
X173482Y083312
X173228Y-021590
X027940Y-021336
X028194Y083566
T03
X092456Y077851
X089916Y077851
X087376Y077851
X084836Y077851
X082296Y077851
X079756Y077851
X077216Y077851
X074676Y077851
X072136Y077851
X069596Y077851
X114300Y077851
X111760Y077851
X109220Y077851
X106680Y077851
X104140Y077851
X101600Y077851
X099060Y077851
X096520Y077851
X101600Y029591
X104140Y029591
X106680Y029591
X109220Y029591
X111760Y029591
X114300Y029591
X078740Y029591
X081280Y029591
X083820Y029591
X086360Y029591
X088900Y029591
X091440Y029591
X093980Y029591
X096520Y029591
T04
X158115Y032767
X158115Y030225
T05
X062992Y-005715
X062992Y-003175
X062992Y-000635
X062992Y001905
X110617Y002032
X110617Y-000508
X110617Y-003048
X110617Y-005588
T06
X140033Y030480
X137033Y030480
X134033Y030480
X074120Y-017272
X071120Y-017272
X068120Y-017272
T07
X146097Y069469
X136097Y069469
M30
