G04 Layer: TopLayer*
G04 EasyEDA v6.5.51, 2025-12-29 20:22:51*
G04 8c801f094042406f8d7acb605edc259c,d5e4be961509469492984ab41ac85589,10*
G04 Gerber Generator version 0.2*
G04 Scale: 100 percent, Rotated: No, Reflected: No *
G04 Dimensions in millimeters *
G04 leading zeros omitted , absolute positions ,4 integer and 5 decimal *
%FSLAX45Y45*%
%MOMM*%

%ADD10C,0.2540*%
%ADD11C,1.2000*%
%ADD12C,2.0000*%
%ADD13R,2.0000X2.0000*%
%ADD14R,1.4224X1.7069*%
%ADD15C,1.4000*%
%ADD16C,1.8000*%
%ADD17R,1.8000X1.8000*%
%ADD18C,1.6000*%
%ADD19C,0.0136*%
%ADD20O,1.599997X3.999992*%
%ADD21O,1.599997X4.399991*%
%ADD22O,3.999992X1.599997*%
%ADD23C,3.5000*%
%ADD24C,0.6096*%

%LPD*%
D10*
X13609703Y6946900D02*
G01*
X8355332Y6946900D01*
X7566687Y7735544D01*
X7566687Y7785100D01*
X7467602Y7785100D02*
G01*
X7566687Y7785100D01*
X15324101Y4786604D02*
G01*
X15436776Y4899279D01*
X16333929Y4899279D01*
X16432608Y4800600D01*
X9819109Y-1752600D02*
G01*
X9720379Y-1851329D01*
X7952031Y-1851329D01*
X7930314Y-1829612D01*
X7538138Y-1829612D01*
X7505169Y-1862581D01*
X7043371Y-1862581D01*
X6939968Y-1759178D01*
X6939968Y-1727200D01*
X6812003Y-1727200D02*
G01*
X6939968Y-1727200D01*
X9243087Y2959125D02*
G01*
X9243087Y2909595D01*
X9309813Y2842869D01*
X12892051Y2842869D01*
X13097182Y3048000D01*
X13403303Y3048000D01*
X9144002Y2959125D02*
G01*
X9243087Y2959125D01*
X15074089Y4306595D02*
G01*
X13847752Y3080257D01*
X13847752Y2997428D01*
X13764414Y2914091D01*
X13633198Y2914091D01*
X13531268Y3016021D01*
X13531268Y3048000D01*
X13403303Y3048000D02*
G01*
X13531268Y3048000D01*
X11061702Y-558800D02*
G01*
X8280402Y-558800D01*
X7112002Y-1727200D01*
X9652002Y2959125D02*
G01*
X9751087Y2959125D01*
X14724103Y4786604D02*
G01*
X14724103Y4530852D01*
X14724103Y4530852D02*
G01*
X16012848Y4530852D01*
X16282596Y4800600D01*
X13575210Y3176092D02*
G01*
X13575210Y3381959D01*
X14724103Y4530852D01*
X13575210Y3176092D02*
G01*
X13703302Y3048000D01*
X11408818Y3148380D02*
G01*
X11436530Y3176092D01*
X13575210Y3176092D01*
X9751087Y2959125D02*
G01*
X9940343Y3148380D01*
X11408818Y3148380D01*
X8737602Y7785100D02*
G01*
X8836687Y7785100D01*
X8836687Y7785100D02*
G01*
X8836687Y7691348D01*
X9109509Y7418527D01*
D11*
G01*
X16432606Y4800600D03*
G01*
X16282593Y4800600D03*
D12*
G01*
X14003299Y3048000D03*
G01*
X13703300Y3048000D03*
D13*
G01*
X13403300Y3048000D03*
D12*
G01*
X7411999Y-1727200D03*
G01*
X7112000Y-1727200D03*
D13*
G01*
X6812000Y-1727200D03*
D14*
G01*
X9245600Y7785087D03*
G01*
X8991600Y7785087D03*
G01*
X8737600Y7785087D03*
G01*
X8483600Y7785087D03*
G01*
X8229600Y7785087D03*
G01*
X7975600Y7785087D03*
G01*
X7721600Y7785087D03*
G01*
X7467600Y7785087D03*
G01*
X7213600Y7785087D03*
G01*
X6959600Y7785087D03*
G01*
X11430000Y7785087D03*
G01*
X11176000Y7785087D03*
G01*
X10922000Y7785087D03*
G01*
X10668000Y7785087D03*
G01*
X10414000Y7785087D03*
G01*
X10160000Y7785087D03*
G01*
X9906000Y7785087D03*
G01*
X9652000Y7785087D03*
G01*
X10160000Y2959112D03*
G01*
X10414000Y2959112D03*
G01*
X10668000Y2959112D03*
G01*
X10922000Y2959112D03*
G01*
X11176000Y2959112D03*
G01*
X11430000Y2959112D03*
G01*
X7874000Y2959112D03*
G01*
X8128000Y2959112D03*
G01*
X8382000Y2959112D03*
G01*
X8636000Y2959112D03*
G01*
X8890000Y2959112D03*
G01*
X9144000Y2959112D03*
G01*
X9398000Y2959112D03*
G01*
X9652000Y2959112D03*
D15*
G01*
X8799093Y-1752600D03*
G01*
X9819106Y-1752600D03*
D16*
G01*
X6299200Y-571500D03*
G01*
X6299200Y-317500D03*
G01*
X6299200Y-63500D03*
D17*
G01*
X6299200Y190500D03*
D16*
G01*
X11061700Y203200D03*
G01*
X11061700Y-50800D03*
G01*
X11061700Y-304800D03*
D17*
G01*
X11061700Y-558800D03*
D18*
G01*
X15811500Y3276749D03*
G01*
X15811500Y3022445D03*
D12*
G01*
X14609699Y6946900D03*
G01*
X13609700Y6946900D03*
D20*
G01*
X14724110Y4786599D03*
D21*
G01*
X15324109Y4786599D03*
D22*
G01*
X15074097Y4306590D03*
D23*
G01*
X17348200Y8331200D03*
G01*
X17322800Y-2159000D03*
G01*
X2794000Y-2133600D03*
G01*
X2819400Y8356600D03*
D24*
G01*
X9109509Y7418527D03*
G01*
X11408818Y3148380D03*
M02*
