G04 Layer: TopSolderMaskLayer*
G04 EasyEDA v6.5.51, 2025-12-29 20:22:51*
G04 8c801f094042406f8d7acb605edc259c,d5e4be961509469492984ab41ac85589,10*
G04 Gerber Generator version 0.2*
G04 Scale: 100 percent, Rotated: No, Reflected: No *
G04 Dimensions in millimeters *
G04 leading zeros omitted , absolute positions ,4 integer and 5 decimal *
%FSLAX45Y45*%
%MOMM*%

%AMMACRO1*4,1,8,-1.0211,-1.0508,-1.0508,-1.0208,-1.0508,1.0211,-1.0211,1.0508,1.0208,1.0508,1.0508,1.0211,1.0508,-1.0208,1.0208,-1.0508,-1.0211,-1.0508,0*%
%AMMACRO2*4,1,8,-0.7323,-0.9041,-0.762,-0.8741,-0.762,0.8744,-0.7323,0.9041,0.732,0.9041,0.762,0.8744,0.762,-0.8741,0.732,-0.9041,-0.7323,-0.9041,0*%
%AMMACRO3*4,1,8,-0.7323,-0.9042,-0.762,-0.8743,-0.762,0.8745,-0.7323,0.9042,0.732,0.9042,0.762,0.8745,0.762,-0.8743,0.732,-0.9042,-0.7323,-0.9042,0*%
%AMMACRO4*4,1,8,-0.7322,-0.9042,-0.7619,-0.8743,-0.7619,0.8745,-0.7322,0.9042,0.7319,0.9042,0.7619,0.8745,0.7619,-0.8743,0.7319,-0.9042,-0.7322,-0.9042,0*%
%AMMACRO5*4,1,8,-0.7322,-0.9041,-0.7619,-0.8741,-0.7619,0.8744,-0.7322,0.9041,0.7319,0.9041,0.7619,0.8744,0.7619,-0.8741,0.7319,-0.9041,-0.7322,-0.9041,0*%
%AMMACRO6*4,1,8,-0.921,-0.9507,-0.9507,-0.9207,-0.9507,0.921,-0.921,0.9507,0.9207,0.9507,0.9507,0.921,0.9507,-0.9207,0.9207,-0.9507,-0.921,-0.9507,0*%
%ADD10C,1.3016*%
%ADD11C,2.1016*%
%ADD12MACRO1*%
%ADD13MACRO2*%
%ADD14MACRO3*%
%ADD15C,0.0147*%
%ADD16MACRO4*%
%ADD17MACRO5*%
%ADD18C,1.5016*%
%ADD19C,1.9016*%
%ADD20MACRO6*%
%ADD21C,1.7016*%
%ADD22O,1.700022X4.100017*%
%ADD23O,1.700022X4.500016*%
%ADD24O,4.100017X1.700022*%
%ADD25C,3.6000*%

%LPD*%
D10*
G01*
X16432606Y4800600D03*
G01*
X16282593Y4800600D03*
D11*
G01*
X14003299Y3048000D03*
G01*
X13703300Y3048000D03*
D12*
G01*
X13403300Y3048000D03*
D11*
G01*
X7411999Y-1727200D03*
G01*
X7112000Y-1727200D03*
D12*
G01*
X6812000Y-1727200D03*
D13*
G01*
X9245600Y7785087D03*
D14*
G01*
X8991600Y7785074D03*
G01*
X8737600Y7785074D03*
G01*
X8483600Y7785074D03*
G01*
X8229600Y7785074D03*
G01*
X7975600Y7785074D03*
G01*
X7721600Y7785074D03*
G01*
X7467600Y7785074D03*
G01*
X7213600Y7785074D03*
G01*
X6959600Y7785074D03*
D16*
G01*
X11429987Y7785074D03*
G01*
X11175987Y7785074D03*
G01*
X10921987Y7785074D03*
D17*
G01*
X10667987Y7785087D03*
G01*
X10413987Y7785087D03*
D13*
G01*
X10160000Y7785087D03*
G01*
X9906000Y7785087D03*
G01*
X9652000Y7785087D03*
D14*
G01*
X10160000Y2959100D03*
G01*
X10414000Y2959100D03*
G01*
X10668000Y2959100D03*
G01*
X10922000Y2959100D03*
G01*
X11176000Y2959100D03*
G01*
X11430000Y2959100D03*
G01*
X7874000Y2959100D03*
G01*
X8128000Y2959100D03*
G01*
X8382000Y2959100D03*
G01*
X8636000Y2959100D03*
G01*
X8890000Y2959100D03*
G01*
X9144000Y2959100D03*
G01*
X9398000Y2959100D03*
G01*
X9652000Y2959100D03*
D18*
G01*
X8799093Y-1752600D03*
G01*
X9819106Y-1752600D03*
D19*
G01*
X6299200Y-571500D03*
G01*
X6299200Y-317500D03*
G01*
X6299200Y-63500D03*
D20*
G01*
X6299200Y190500D03*
D19*
G01*
X11061700Y203200D03*
G01*
X11061700Y-50800D03*
G01*
X11061700Y-304800D03*
D20*
G01*
X11061700Y-558800D03*
D21*
G01*
X15811500Y3276749D03*
G01*
X15811500Y3022445D03*
D11*
G01*
X14609699Y6946900D03*
G01*
X13609700Y6946900D03*
D22*
G01*
X14724110Y4786599D03*
D23*
G01*
X15324109Y4786599D03*
D24*
G01*
X15074097Y4306590D03*
D25*
G01*
X17348200Y8331200D03*
G01*
X17322800Y-2159000D03*
G01*
X2794000Y-2133600D03*
G01*
X2819400Y8356600D03*
M02*
